<svg width="144" height="92" viewBox="0 0 144 92" fill="none" xmlns="http://www.w3.org/2000/svg">
<g id="rdv-logo-FINAL (1) 1">
<path id="Vector" d="M66.3601 35.3699V32.5334H43.8224V25.5718H69.6378C70.1158 25.5718 70.6011 25.6921 71.0973 25.9327C71.5917 26.1733 72.0353 26.4923 72.4301 26.8861C72.823 27.2817 73.1381 27.7283 73.3771 28.2277C73.6162 28.7272 73.7357 29.234 73.7357 29.748V37.5337C73.7357 38.0495 73.6162 38.5563 73.3771 39.054C73.1381 39.5534 72.8212 40 72.4301 40.3938C72.0371 40.7894 71.5935 41.1084 71.0973 41.3472C70.6011 41.5878 70.1158 41.7081 69.6378 41.7081H67.5372L82.033 61.8183H73.7357L58.7274 41.7081H51.198V51.5044H43.8224V35.3644H66.3601V35.3699Z" fill="url(#paint0_linear_551_47611)"/>
<path id="Vector_2" d="M76.9626 35.3699H84.3382V44.5482H101.395V32.5334H76.9626V25.5718H104.674C105.152 25.5718 105.639 25.6921 106.133 25.9327C106.628 26.1733 107.072 26.4923 107.466 26.8861C107.859 27.2817 108.174 27.7283 108.413 28.2277C108.652 28.7272 108.772 29.234 108.772 29.748V47.3317C108.772 47.8476 108.652 48.3544 108.413 48.852C108.174 49.3515 107.857 49.7981 107.466 50.1937C107.073 50.5893 106.63 50.9083 106.133 51.1471C105.639 51.3877 105.152 51.508 104.674 51.508H76.9626V35.3699Z" fill="url(#paint1_linear_551_47611)"/>
<path id="Vector_3" d="M141.452 48.6478C141.11 49.4207 140.632 50.0222 140.018 50.4524C139.402 50.8826 138.669 51.1743 137.816 51.3293C136.961 51.4842 136.005 51.5608 134.948 51.5608C133.582 51.5608 132.24 51.424 130.926 51.1488C129.611 50.8735 128.561 50.3923 127.775 49.7051L109.848 25.5735H118.71L131.158 42.0744C131.465 42.4189 131.799 42.7106 132.157 42.9512C132.516 43.1918 132.916 43.3121 133.361 43.3121C133.702 43.3121 133.993 43.2009 134.232 42.9767C134.471 42.7543 134.591 42.5392 134.591 42.3314V25.5735H141.966V45.6837C141.963 46.8868 141.793 47.8749 141.452 48.6478Z" fill="url(#paint2_linear_551_47611)"/>
<path id="Vector_4" d="M44.0904 64.9519H45.6332V73.0328H44.0922V64.9519H44.0904Z" fill="url(#paint3_linear_551_47611)"/>
<path id="Vector_5" d="M51.9422 66.3518H49.3165V64.9536H56.0963V66.3518H53.4832V73.0345H51.9422V66.3518Z" fill="url(#paint4_linear_551_47611)"/>
<path id="Vector_6" d="M65.1595 67.2688C65.1595 66.4977 65.4239 65.8979 65.9545 65.4714C66.4851 65.0448 67.2275 64.8315 68.1855 64.8315C69.1669 64.8315 69.9166 65.0612 70.4345 65.5188C70.9524 65.9763 71.224 66.6052 71.2476 67.4H69.6341C69.6269 67.2232 69.5925 67.0628 69.5345 66.9169C69.4766 66.7729 69.3842 66.6453 69.2575 66.536C69.1325 66.4284 68.9768 66.3409 68.7921 66.2771C68.6074 66.2133 68.3865 66.1805 68.1275 66.1805C67.6965 66.1805 67.3579 66.2698 67.1152 66.4466C66.8726 66.6235 66.7495 66.8732 66.7495 67.194C66.7495 67.3945 66.7947 67.5622 66.8853 67.6953C66.9758 67.8284 67.1008 67.9378 67.2619 68.0271C67.4231 68.1164 67.6096 68.1875 67.8215 68.244C68.0333 68.3005 68.2561 68.357 68.4915 68.4135C68.8211 68.4865 69.1561 68.5648 69.4983 68.6487C69.8406 68.7326 70.1538 68.8583 70.4399 69.0224C70.7261 69.1883 70.9597 69.4052 71.1407 69.6732C71.3218 69.943 71.4106 70.3057 71.4106 70.7651C71.4106 71.126 71.3454 71.4578 71.2168 71.7549C71.0864 72.0521 70.8927 72.3036 70.6337 72.5096C70.3748 72.7156 70.0524 72.8742 69.6685 72.9854C69.2846 73.0984 68.8319 73.1549 68.314 73.1549C67.7726 73.1549 67.2963 73.0948 66.8835 72.9744C66.4724 72.8541 66.1265 72.6828 65.8477 72.4622C65.5688 72.2416 65.3569 71.9718 65.212 71.6547C65.0672 71.3375 64.9948 70.982 64.9948 70.5864H66.6064C66.6462 70.9802 66.8128 71.281 67.1062 71.4906C67.3995 71.7002 67.8016 71.8041 68.3122 71.8041C68.7758 71.8041 69.138 71.7221 69.4005 71.558C69.6631 71.3922 69.7953 71.1661 69.7953 70.8763C69.7953 70.6758 69.7464 70.5099 69.6486 70.3823C69.5508 70.2529 69.4186 70.1471 69.2538 70.0633C69.0891 69.9794 68.8953 69.9101 68.6708 69.8591C68.448 69.8062 68.2144 69.757 67.97 69.7078C67.6476 69.644 67.3199 69.5693 66.9867 69.4854C66.6535 69.4016 66.3511 69.274 66.0794 69.1062C65.8096 68.9367 65.5869 68.7089 65.4149 68.419C65.2465 68.1255 65.1595 67.7427 65.1595 67.2688Z" fill="url(#paint5_linear_551_47611)"/>
<path id="Vector_7" d="M75.4125 67.3762C75.6244 66.8694 75.9159 66.4283 76.2889 66.0491C76.662 65.6718 77.0966 65.3728 77.5946 65.1559C78.0925 64.939 78.6213 64.8296 79.1772 64.8296C79.7422 64.8296 80.271 64.9371 80.7672 65.1559C81.2615 65.3728 81.6943 65.6699 82.0673 66.0491C82.4404 66.4283 82.7319 66.8694 82.9438 67.3762C83.1557 67.8829 83.2607 68.4207 83.2607 68.9931C83.2607 69.5728 83.1557 70.1124 82.9438 70.6155C82.7319 71.1186 82.4386 71.5579 82.0673 71.9371C81.6943 72.3144 81.2615 72.6134 80.7672 72.8303C80.2728 73.0472 79.7422 73.1566 79.1772 73.1566C78.6195 73.1566 78.0925 73.0472 77.5946 72.8303C77.0966 72.6134 76.6602 72.3162 76.2889 71.9371C75.9159 71.5597 75.6244 71.1186 75.4125 70.6155C75.2006 70.1124 75.0956 69.5728 75.0956 68.9931C75.0938 68.4225 75.2006 67.8829 75.4125 67.3762ZM76.9119 69.9939C77.0423 70.3074 77.2179 70.5808 77.4425 70.8142C77.667 71.0475 77.926 71.2316 78.2247 71.3683C78.5235 71.5051 78.8404 71.5743 79.1772 71.5743C79.5141 71.5743 79.8328 71.5069 80.1297 71.3683C80.4285 71.2316 80.6893 71.0475 80.912 70.8142C81.1366 70.5808 81.3122 70.3074 81.4426 69.9939C81.5712 69.6803 81.6364 69.3467 81.6364 68.9931C81.6364 68.6395 81.5712 68.3059 81.4426 67.9923C81.3122 67.6788 81.1366 67.4035 80.912 67.1665C80.6875 66.9296 80.4267 66.7455 80.1297 66.6124C79.831 66.4793 79.5141 66.4137 79.1772 66.4137C78.8404 66.4137 78.5217 66.4793 78.2247 66.6124C77.926 66.7455 77.6652 66.9296 77.4425 67.1665C77.2179 67.4035 77.0423 67.6788 76.9119 67.9923C76.7833 68.3059 76.7181 68.6395 76.7181 68.9931C76.7181 69.3467 76.7833 69.6803 76.9119 69.9939Z" fill="url(#paint6_linear_551_47611)"/>
<path id="Vector_8" d="M87.3243 64.9519H88.8653V71.5854H92.4779V73.0328H87.3224V64.9519H87.3243Z" fill="url(#paint7_linear_551_47611)"/>
<path id="Vector_9" d="M97.11 72.2927C96.5251 71.7185 96.2336 70.9 96.2336 69.8373V64.9519H97.7746V69.7407C97.7746 70.344 97.9394 70.8144 98.269 71.1516C98.5985 71.4888 99.0458 71.6584 99.6108 71.6584C100.169 71.6584 100.609 71.4888 100.935 71.1516C101.26 70.8144 101.423 70.344 101.423 69.7407V64.9519H102.964V69.8373C102.964 70.8982 102.675 71.7167 102.093 72.2927C101.512 72.8669 100.685 73.155 99.609 73.155C98.5279 73.155 97.6949 72.8669 97.11 72.2927Z" fill="url(#paint8_linear_551_47611)"/>
<path id="Vector_10" d="M109.158 66.3518H106.532V64.9536H113.312V66.3518H110.699V73.0345H109.158V66.3518Z" fill="url(#paint9_linear_551_47611)"/>
<path id="Vector_11" d="M116.997 64.9519H118.538V73.0328H116.997V64.9519Z" fill="url(#paint10_linear_551_47611)"/>
<path id="Vector_12" d="M122.916 67.3762C123.128 66.8694 123.422 66.4283 123.793 66.0491C124.166 65.6718 124.6 65.3728 125.098 65.1559C125.596 64.939 126.123 64.8296 126.681 64.8296C127.246 64.8296 127.775 64.9371 128.271 65.1559C128.767 65.3746 129.198 65.6699 129.571 66.0491C129.944 66.4283 130.236 66.8694 130.448 67.3762C130.66 67.8829 130.766 68.4207 130.766 68.9931C130.766 69.5728 130.66 70.1124 130.448 70.6155C130.236 71.1186 129.942 71.5579 129.571 71.9371C129.198 72.3144 128.765 72.6134 128.271 72.8303C127.777 73.0472 127.248 73.1566 126.681 73.1566C126.123 73.1566 125.596 73.0472 125.098 72.8303C124.6 72.6134 124.164 72.3162 123.793 71.9371C123.42 71.5597 123.128 71.1186 122.916 70.6155C122.704 70.1124 122.599 69.5728 122.599 68.9931C122.599 68.4225 122.704 67.8829 122.916 67.3762ZM124.418 69.9939C124.546 70.3074 124.724 70.5808 124.948 70.8142C125.171 71.0475 125.432 71.2316 125.73 71.3683C126.027 71.5051 126.346 71.5743 126.683 71.5743C127.02 71.5743 127.338 71.5069 127.637 71.3683C127.936 71.2316 128.197 71.0475 128.419 70.8142C128.644 70.5808 128.82 70.3074 128.95 69.9939C129.079 69.6803 129.144 69.3467 129.144 68.9931C129.144 68.6395 129.079 68.3059 128.95 67.9923C128.82 67.6788 128.644 67.4035 128.419 67.1665C128.197 66.9296 127.934 66.7455 127.637 66.6124C127.338 66.4793 127.022 66.4137 126.683 66.4137C126.346 66.4137 126.027 66.4793 125.73 66.6124C125.432 66.7455 125.171 66.9296 124.948 67.1665C124.724 67.4035 124.548 67.6788 124.418 67.9923C124.289 68.3059 124.224 68.6395 124.224 68.9931C124.224 69.3467 124.289 69.6803 124.418 69.9939Z" fill="url(#paint11_linear_551_47611)"/>
<path id="Vector_13" d="M134.828 64.9519H136.782L140.101 70.7542V64.9519H141.642V73.0328H139.688L136.369 67.2305V73.0328H134.828V64.9519Z" fill="url(#paint12_linear_551_47611)"/>
<g id="XMLID_3_">
<path id="XMLID_7_" d="M31.103 2.96216C27.954 4.06866 24.9643 5.51604 22.1774 7.25874L28.4809 10.9829C31.0088 9.5082 33.7088 8.30144 36.5446 7.40092L31.103 2.96216Z" fill="url(#paint13_linear_551_47611)"/>
<path id="XMLID_29_" d="M11.8918 16.0762C9.69701 18.6137 7.77752 21.399 6.18036 24.385L13.507 26.1769C14.9937 23.5446 16.7611 21.0964 18.7711 18.8707L11.8918 16.0762Z" fill="url(#paint14_linear_551_47611)"/>
<path id="XMLID_30_" d="M5.41075 25.887C3.94216 28.8947 2.79227 32.0903 2.00818 35.428L9.49963 36.1408C10.2566 33.1731 11.3376 30.3367 12.7012 27.6698L5.41075 25.887Z" fill="url(#paint15_linear_551_47611)"/>
<path id="XMLID_31_" d="M3.11279 60.3634C4.18481 63.5936 5.60451 66.6652 7.33206 69.5271L13.9326 67.2066C12.406 64.6308 11.1529 61.8728 10.2149 58.9707L3.11279 60.3634Z" fill="url(#paint16_linear_551_47611)"/>
<path id="XMLID_32_" d="M0.887268 48.861C1.10276 52.2863 1.6949 55.6076 2.62205 58.7849L9.73685 57.3886C8.94189 54.5375 8.44572 51.5607 8.28456 48.4946L0.887268 48.861Z" fill="url(#paint17_linear_551_47611)"/>
<path id="XMLID_33_" d="M14.8199 68.634L8.22845 70.9528C10.0646 73.7582 12.2033 76.3485 14.5954 78.6746L20.5023 75.5756C18.3656 73.4829 16.4587 71.1551 14.8199 68.634Z" fill="url(#paint18_linear_551_47611)"/>
<path id="XMLID_34_" d="M15.863 79.8613C18.3112 82.067 21.0003 84.0102 23.885 85.6417L28.968 81.943C26.3785 80.4811 23.9647 78.742 21.7663 76.7642L15.863 79.8613Z" fill="url(#paint19_linear_551_47611)"/>
<path id="XMLID_35_" d="M9.12663 37.7577L1.66052 37.0486C1.09373 39.9251 0.796753 42.8983 0.796753 45.9425C0.796753 46.3691 0.803996 46.7956 0.814861 47.2204L8.23569 46.8521C8.23388 46.6771 8.22845 46.5021 8.22845 46.3253C8.22845 43.385 8.53992 40.5194 9.12663 37.7577Z" fill="url(#paint20_linear_551_47611)"/>
<path id="XMLID_36_" d="M75.8109 11.7193C73.388 9.57922 70.7369 7.69616 67.8994 6.11206L70.1901 11.6628C72.5496 13.143 74.748 14.8583 76.7508 16.7797L75.8109 11.7193Z" fill="url(#paint21_linear_551_47611)"/>
<path id="XMLID_37_" d="M26.8983 11.9527L20.6454 8.25952C17.8839 10.148 15.3378 12.3355 13.058 14.7782L19.9808 17.591C22.0705 15.4673 24.3902 13.5751 26.8983 11.9527Z" fill="url(#paint22_linear_551_47611)"/>
<path id="XMLID_38_" d="M65.6467 4.93627C62.7855 3.54539 59.756 2.44801 56.5961 1.68604L60.0656 7.11463C62.7946 7.90942 65.404 8.98493 67.8631 10.3084L65.6467 4.93627Z" fill="url(#paint23_linear_551_47611)"/>
<path id="XMLID_39_" d="M42.5928 0.557861C39.2663 0.807599 36.0412 1.42009 32.9537 2.35524L38.4568 6.84322C41.2238 6.11224 44.1067 5.66928 47.071 5.54714L42.5928 0.557861Z" fill="url(#paint24_linear_551_47611)"/>
<path id="XMLID_44_" d="M54.347 1.20309C51.6434 0.696319 48.8565 0.430176 46.0062 0.430176C45.568 0.430176 45.1298 0.437467 44.6952 0.450228L49.2422 5.51607C52.1595 5.54888 55.0025 5.89159 57.7387 6.5132L54.347 1.20309Z" fill="url(#paint25_linear_551_47611)"/>
<path id="XMLID_46_" d="M59.4155 89.4187C62.3111 88.5145 65.0817 87.326 67.6947 85.8841L69.118 81.6331C66.8001 82.9893 64.3374 84.1231 61.757 85L59.4155 89.4187Z" fill="url(#paint26_linear_551_47611)"/>
<path id="XMLID_48_" d="M48.0435 91.4075C51.2034 91.2671 54.2782 90.8005 57.2371 90.0385L59.5477 85.6799C56.8985 86.4127 54.1406 86.883 51.303 87.058L48.0435 91.4075Z" fill="url(#paint27_linear_551_47611)"/>
<path id="XMLID_49_" d="M40.6534 86.3179L36.4649 90.4358C39.5289 91.0975 42.7069 91.4493 45.9646 91.4512L49.2024 87.1309C49.0593 87.1327 48.9181 87.1364 48.775 87.1364C45.9917 87.1382 43.2773 86.8556 40.6534 86.3179Z" fill="url(#paint28_linear_551_47611)"/>
<path id="XMLID_51_" d="M25.4858 86.5058C28.3542 87.9787 31.4 89.1526 34.5834 89.9875L38.7593 85.8823C35.8963 85.1495 33.1565 84.1105 30.5742 82.8035L25.4858 86.5058Z" fill="url(#paint29_linear_551_47611)"/>
<g id="XMLID_1_">
<path id="XMLID_53_" d="M45.1678 14.4336L36.5446 7.40088C33.7088 8.30321 31.0088 9.50998 28.4809 10.9829L38.7629 17.0568C40.7838 15.974 42.9278 15.0899 45.1678 14.4336Z" fill="url(#paint30_radial_551_47611)"/>
<path id="XMLID_54_" d="M30.2465 23.5318L18.7712 18.8706C16.7612 21.0945 14.9938 23.5445 13.5071 26.1768L25.8643 29.1973C27.1264 27.1557 28.5968 25.2562 30.2465 23.5318Z" fill="url(#paint31_radial_551_47611)"/>
<path id="XMLID_55_" d="M25.0005 30.6776L12.703 27.6716C11.3395 30.3385 10.2584 33.175 9.50146 36.1427L22.2027 37.3494C22.9017 35.0088 23.8433 32.7758 25.0005 30.6776Z" fill="url(#paint32_radial_551_47611)"/>
<path id="XMLID_56_" d="M22.076 56.6392L10.215 58.967C11.153 61.8691 12.4061 64.6271 13.9326 67.2029L24.8067 63.3784C23.6695 61.2584 22.7496 59.0016 22.076 56.6392Z" fill="url(#paint33_radial_551_47611)"/>
<path id="XMLID_57_" d="M20.7721 47.8728L8.28638 48.4926C8.44573 51.5587 8.9419 54.5355 9.73867 57.3865L21.6649 55.0459C21.1253 52.7363 20.8192 50.3374 20.7721 47.8728Z" fill="url(#paint34_radial_551_47611)"/>
<path id="XMLID_58_" d="M25.6306 64.8313L14.8217 68.6339C16.4605 71.1549 18.3673 73.4828 20.5041 75.5755L29.9857 70.6008C28.3397 68.8435 26.8765 66.9094 25.6306 64.8313Z" fill="url(#paint35_radial_551_47611)"/>
<path id="XMLID_59_" d="M31.1863 71.824L21.7681 76.764C23.9665 78.7419 26.3803 80.4809 28.9698 81.9429L36.8217 76.2299C34.7899 74.9612 32.9012 73.4828 31.1863 71.824Z" fill="url(#paint36_radial_551_47611)"/>
<path id="XMLID_60_" d="M21.7627 38.9589L9.12663 37.7576C8.53992 40.5211 8.22845 43.3849 8.22845 46.3234C8.22845 46.5002 8.23208 46.6752 8.2357 46.8502L20.7794 46.2268C20.8482 43.7276 21.1868 41.2958 21.7627 38.9589Z" fill="url(#paint37_radial_551_47611)"/>
<path id="XMLID_61_" d="M77.7557 22.2064L76.7489 16.7814C74.7461 14.8601 72.5478 13.1447 70.1882 11.6646L73.0041 18.4877C74.699 19.5851 76.2872 20.8319 77.7557 22.2064Z" fill="url(#paint38_radial_551_47611)"/>
<path id="XMLID_62_" d="M37.1223 17.9937L26.8983 11.9526C24.3902 13.5732 22.0705 15.4672 19.9808 17.589L31.5141 22.2739C33.2271 20.6625 35.105 19.2242 37.1223 17.9937Z" fill="url(#paint39_radial_551_47611)"/>
<path id="XMLID_63_" d="M70.6663 17.1023L67.8631 10.3102C65.404 8.98675 62.7946 7.91124 60.0656 7.11646L64.8788 14.6487C66.8961 15.2867 68.8319 16.1125 70.6663 17.1023Z" fill="url(#paint40_radial_551_47611)"/>
<path id="XMLID_64_" d="M53.8345 13.0827L47.071 5.54688C44.1067 5.67083 41.2238 6.1138 38.4568 6.84296L47.1326 13.9195C49.2947 13.4255 51.5366 13.1393 53.8345 13.0827Z" fill="url(#paint41_radial_551_47611)"/>
<path id="XMLID_69_" d="M62.5193 13.9925L57.7387 6.51129C55.0007 5.88968 52.1577 5.54697 49.2422 5.51416L56.0528 13.1029C58.2693 13.1922 60.4314 13.4948 62.5193 13.9925Z" fill="url(#paint42_radial_551_47611)"/>
<path id="XMLID_71_" d="M64.4678 79.8923L61.7588 85.0001C64.3392 84.1232 66.802 82.9894 69.1199 81.6332L70.5468 77.373C68.6219 78.4012 66.5883 79.2488 64.4678 79.8923Z" fill="url(#paint43_radial_551_47611)"/>
<path id="XMLID_73_" d="M55.5983 81.3269L51.303 87.0581C54.1406 86.8831 56.8967 86.4128 59.5477 85.6799L62.3093 80.4719C60.1453 80.9714 57.8999 81.2649 55.5983 81.3269Z" fill="url(#paint44_radial_551_47611)"/>
<path id="XMLID_74_" d="M46.6889 80.3862L40.6534 86.3198C43.2773 86.8575 45.9936 87.1401 48.775 87.1401C48.9181 87.1401 49.0611 87.1364 49.2024 87.1346L53.5593 81.3214C51.1997 81.243 48.9018 80.924 46.6889 80.3862Z" fill="url(#paint45_radial_551_47611)"/>
<path id="XMLID_76_" d="M38.3608 77.136L30.5742 82.8016C33.1565 84.1104 35.8963 85.1495 38.7592 85.8804L44.8581 79.8849C42.5837 79.194 40.4071 78.2698 38.3608 77.136Z" fill="url(#paint46_radial_551_47611)"/>
</g>
</g>
</g>
<defs>
<linearGradient id="paint0_linear_551_47611" x1="62.9286" y1="-1.6987" x2="62.9286" y2="78.323" gradientUnits="userSpaceOnUse">
<stop offset="0.00558659" stop-color="#30A9E5"/>
<stop offset="0.6592" stop-color="#0E4777"/>
</linearGradient>
<linearGradient id="paint1_linear_551_47611" x1="92.8672" y1="-1.6987" x2="92.8672" y2="78.323" gradientUnits="userSpaceOnUse">
<stop offset="0.00558659" stop-color="#30A9E5"/>
<stop offset="0.6592" stop-color="#0E4777"/>
</linearGradient>
<linearGradient id="paint2_linear_551_47611" x1="125.905" y1="-1.69881" x2="125.905" y2="78.3229" gradientUnits="userSpaceOnUse">
<stop offset="0.00558659" stop-color="#30A9E5"/>
<stop offset="0.6592" stop-color="#0E4777"/>
</linearGradient>
<linearGradient id="paint3_linear_551_47611" x1="44.8621" y1="62.4531" x2="44.8621" y2="79.6198" gradientUnits="userSpaceOnUse">
<stop offset="0.00558659" stop-color="#30A9E5"/>
<stop offset="0.6592" stop-color="#0E4777"/>
</linearGradient>
<linearGradient id="paint4_linear_551_47611" x1="52.7067" y1="62.453" x2="52.7067" y2="79.6196" gradientUnits="userSpaceOnUse">
<stop offset="0.00558659" stop-color="#30A9E5"/>
<stop offset="0.6592" stop-color="#0E4777"/>
</linearGradient>
<linearGradient id="paint5_linear_551_47611" x1="68.2025" y1="62.453" x2="68.2025" y2="79.6197" gradientUnits="userSpaceOnUse">
<stop offset="0.00558659" stop-color="#30A9E5"/>
<stop offset="0.6592" stop-color="#0E4777"/>
</linearGradient>
<linearGradient id="paint6_linear_551_47611" x1="79.1783" y1="62.4529" x2="79.1783" y2="79.6196" gradientUnits="userSpaceOnUse">
<stop offset="0.00558659" stop-color="#30A9E5"/>
<stop offset="0.6592" stop-color="#0E4777"/>
</linearGradient>
<linearGradient id="paint7_linear_551_47611" x1="89.9012" y1="62.4531" x2="89.9012" y2="79.6198" gradientUnits="userSpaceOnUse">
<stop offset="0.00558659" stop-color="#30A9E5"/>
<stop offset="0.6592" stop-color="#0E4777"/>
</linearGradient>
<linearGradient id="paint8_linear_551_47611" x1="99.5998" y1="62.4531" x2="99.5998" y2="79.6198" gradientUnits="userSpaceOnUse">
<stop offset="0.00558659" stop-color="#30A9E5"/>
<stop offset="0.6592" stop-color="#0E4777"/>
</linearGradient>
<linearGradient id="paint9_linear_551_47611" x1="109.922" y1="62.453" x2="109.922" y2="79.6196" gradientUnits="userSpaceOnUse">
<stop offset="0.00558659" stop-color="#30A9E5"/>
<stop offset="0.6592" stop-color="#0E4777"/>
</linearGradient>
<linearGradient id="paint10_linear_551_47611" x1="117.767" y1="62.4531" x2="117.767" y2="79.6198" gradientUnits="userSpaceOnUse">
<stop offset="0.00558659" stop-color="#30A9E5"/>
<stop offset="0.6592" stop-color="#0E4777"/>
</linearGradient>
<linearGradient id="paint11_linear_551_47611" x1="126.683" y1="62.4529" x2="126.683" y2="79.6196" gradientUnits="userSpaceOnUse">
<stop offset="0.00558659" stop-color="#30A9E5"/>
<stop offset="0.6592" stop-color="#0E4777"/>
</linearGradient>
<linearGradient id="paint12_linear_551_47611" x1="138.236" y1="62.4531" x2="138.236" y2="79.6198" gradientUnits="userSpaceOnUse">
<stop offset="0.00558659" stop-color="#30A9E5"/>
<stop offset="0.6592" stop-color="#0E4777"/>
</linearGradient>
<linearGradient id="paint13_linear_551_47611" x1="22.177" y1="6.97196" x2="45.1675" y2="6.97196" gradientUnits="userSpaceOnUse">
<stop offset="0.00558659" stop-color="#30A9E5"/>
<stop offset="0.6592" stop-color="#0E4777"/>
</linearGradient>
<linearGradient id="paint14_linear_551_47611" x1="6.17994" y1="21.126" x2="30.2468" y2="21.126" gradientUnits="userSpaceOnUse">
<stop offset="0.00558659" stop-color="#30A9E5"/>
<stop offset="0.6592" stop-color="#0E4777"/>
</linearGradient>
<linearGradient id="paint15_linear_551_47611" x1="2.00881" y1="31.0148" x2="24.9999" y2="31.0148" gradientUnits="userSpaceOnUse">
<stop offset="0.00558659" stop-color="#30A9E5"/>
<stop offset="0.6592" stop-color="#0E4777"/>
</linearGradient>
<linearGradient id="paint16_linear_551_47611" x1="3.11348" y1="64.2475" x2="24.8066" y2="64.2475" gradientUnits="userSpaceOnUse">
<stop offset="0.00558659" stop-color="#30A9E5"/>
<stop offset="0.6592" stop-color="#0E4777"/>
</linearGradient>
<linearGradient id="paint17_linear_551_47611" x1="0.887467" y1="53.6391" x2="21.6643" y2="53.6391" gradientUnits="userSpaceOnUse">
<stop offset="0.00558659" stop-color="#30A9E5"/>
<stop offset="0.6592" stop-color="#0E4777"/>
</linearGradient>
<linearGradient id="paint18_linear_551_47611" x1="8.2288" y1="73.6538" x2="29.9837" y2="73.6538" gradientUnits="userSpaceOnUse">
<stop offset="0.00558659" stop-color="#30A9E5"/>
<stop offset="0.6592" stop-color="#0E4777"/>
</linearGradient>
<linearGradient id="paint19_linear_551_47611" x1="15.8638" y1="81.2033" x2="36.8212" y2="81.2033" gradientUnits="userSpaceOnUse">
<stop offset="0.00558659" stop-color="#30A9E5"/>
<stop offset="0.6592" stop-color="#0E4777"/>
</linearGradient>
<linearGradient id="paint20_linear_551_47611" x1="0.795956" y1="42.133" x2="21.7629" y2="42.133" gradientUnits="userSpaceOnUse">
<stop offset="0.00558659" stop-color="#30A9E5"/>
<stop offset="0.6592" stop-color="#0E4777"/>
</linearGradient>
<linearGradient id="paint21_linear_551_47611" x1="67.8995" y1="11.4473" x2="77.7564" y2="11.4473" gradientUnits="userSpaceOnUse">
<stop offset="0.00558659" stop-color="#30A9E5"/>
<stop offset="0.6592" stop-color="#0E4777"/>
</linearGradient>
<linearGradient id="paint22_linear_551_47611" x1="13.0588" y1="12.9245" x2="37.1225" y2="12.9245" gradientUnits="userSpaceOnUse">
<stop offset="0.00558659" stop-color="#30A9E5"/>
<stop offset="0.6592" stop-color="#0E4777"/>
</linearGradient>
<linearGradient id="paint23_linear_551_47611" x1="56.5963" y1="5.99738" x2="70.6659" y2="5.99738" gradientUnits="userSpaceOnUse">
<stop offset="0.00558659" stop-color="#30A9E5"/>
<stop offset="0.6592" stop-color="#0E4777"/>
</linearGradient>
<linearGradient id="paint24_linear_551_47611" x1="32.9535" y1="3.70109" x2="53.8349" y2="3.70109" gradientUnits="userSpaceOnUse">
<stop offset="0.00558659" stop-color="#30A9E5"/>
<stop offset="0.6592" stop-color="#0E4777"/>
</linearGradient>
<linearGradient id="paint25_linear_551_47611" x1="44.6951" y1="3.47087" x2="62.5197" y2="3.47087" gradientUnits="userSpaceOnUse">
<stop offset="0.00558659" stop-color="#30A9E5"/>
<stop offset="0.6592" stop-color="#0E4777"/>
</linearGradient>
<linearGradient id="paint26_linear_551_47611" x1="59.4157" y1="85.5255" x2="70.5462" y2="85.5255" gradientUnits="userSpaceOnUse">
<stop offset="0.00558659" stop-color="#30A9E5"/>
<stop offset="0.6592" stop-color="#0E4777"/>
</linearGradient>
<linearGradient id="paint27_linear_551_47611" x1="48.0432" y1="88.5428" x2="62.3095" y2="88.5428" gradientUnits="userSpaceOnUse">
<stop offset="0.00558659" stop-color="#30A9E5"/>
<stop offset="0.6592" stop-color="#0E4777"/>
</linearGradient>
<linearGradient id="paint28_linear_551_47611" x1="36.4633" y1="88.8858" x2="53.5591" y2="88.8858" gradientUnits="userSpaceOnUse">
<stop offset="0.00558659" stop-color="#30A9E5"/>
<stop offset="0.6592" stop-color="#0E4777"/>
</linearGradient>
<linearGradient id="paint29_linear_551_47611" x1="25.4863" y1="86.3953" x2="44.8593" y2="86.3953" gradientUnits="userSpaceOnUse">
<stop offset="0.00558659" stop-color="#30A9E5"/>
<stop offset="0.6592" stop-color="#0E4777"/>
</linearGradient>
<radialGradient id="paint30_radial_551_47611" cx="0" cy="0" r="1" gradientUnits="userSpaceOnUse" gradientTransform="translate(62.054 43.2225) scale(102.339 103.02)">
<stop offset="0.00558659" stop-color="#30A9E5"/>
<stop offset="0.6592" stop-color="#0E4777"/>
</radialGradient>
<radialGradient id="paint31_radial_551_47611" cx="0" cy="0" r="1" gradientUnits="userSpaceOnUse" gradientTransform="translate(62.054 43.2226) scale(102.339 103.02)">
<stop offset="0.00558659" stop-color="#30A9E5"/>
<stop offset="0.6592" stop-color="#0E4777"/>
</radialGradient>
<radialGradient id="paint32_radial_551_47611" cx="0" cy="0" r="1" gradientUnits="userSpaceOnUse" gradientTransform="translate(62.054 43.2226) scale(102.339 103.02)">
<stop offset="0.00558659" stop-color="#30A9E5"/>
<stop offset="0.6592" stop-color="#0E4777"/>
</radialGradient>
<radialGradient id="paint33_radial_551_47611" cx="0" cy="0" r="1" gradientUnits="userSpaceOnUse" gradientTransform="translate(62.054 43.2224) scale(102.339 103.02)">
<stop offset="0.00558659" stop-color="#30A9E5"/>
<stop offset="0.6592" stop-color="#0E4777"/>
</radialGradient>
<radialGradient id="paint34_radial_551_47611" cx="0" cy="0" r="1" gradientUnits="userSpaceOnUse" gradientTransform="translate(62.054 43.2224) scale(102.339 103.02)">
<stop offset="0.00558659" stop-color="#30A9E5"/>
<stop offset="0.6592" stop-color="#0E4777"/>
</radialGradient>
<radialGradient id="paint35_radial_551_47611" cx="0" cy="0" r="1" gradientUnits="userSpaceOnUse" gradientTransform="translate(62.054 43.2225) scale(102.339 103.02)">
<stop offset="0.00558659" stop-color="#30A9E5"/>
<stop offset="0.6592" stop-color="#0E4777"/>
</radialGradient>
<radialGradient id="paint36_radial_551_47611" cx="0" cy="0" r="1" gradientUnits="userSpaceOnUse" gradientTransform="translate(62.054 43.2225) scale(102.339 103.02)">
<stop offset="0.00558659" stop-color="#30A9E5"/>
<stop offset="0.6592" stop-color="#0E4777"/>
</radialGradient>
<radialGradient id="paint37_radial_551_47611" cx="0" cy="0" r="1" gradientUnits="userSpaceOnUse" gradientTransform="translate(62.054 43.2225) scale(102.339 103.02)">
<stop offset="0.00558659" stop-color="#30A9E5"/>
<stop offset="0.6592" stop-color="#0E4777"/>
</radialGradient>
<radialGradient id="paint38_radial_551_47611" cx="0" cy="0" r="1" gradientUnits="userSpaceOnUse" gradientTransform="translate(62.054 43.2225) scale(102.339 103.02)">
<stop offset="0.00558659" stop-color="#30A9E5"/>
<stop offset="0.6592" stop-color="#0E4777"/>
</radialGradient>
<radialGradient id="paint39_radial_551_47611" cx="0" cy="0" r="1" gradientUnits="userSpaceOnUse" gradientTransform="translate(62.054 43.2225) scale(102.339 103.02)">
<stop offset="0.00558659" stop-color="#30A9E5"/>
<stop offset="0.6592" stop-color="#0E4777"/>
</radialGradient>
<radialGradient id="paint40_radial_551_47611" cx="0" cy="0" r="1" gradientUnits="userSpaceOnUse" gradientTransform="translate(62.054 43.2225) scale(102.339 103.02)">
<stop offset="0.00558659" stop-color="#30A9E5"/>
<stop offset="0.6592" stop-color="#0E4777"/>
</radialGradient>
<radialGradient id="paint41_radial_551_47611" cx="0" cy="0" r="1" gradientUnits="userSpaceOnUse" gradientTransform="translate(62.054 43.2264) scale(102.351 103.033)">
<stop offset="0.00558659" stop-color="#30A9E5"/>
<stop offset="0.6592" stop-color="#0E4777"/>
</radialGradient>
<radialGradient id="paint42_radial_551_47611" cx="0" cy="0" r="1" gradientUnits="userSpaceOnUse" gradientTransform="translate(62.054 43.2225) scale(102.339 103.02)">
<stop offset="0.00558659" stop-color="#30A9E5"/>
<stop offset="0.6592" stop-color="#0E4777"/>
</radialGradient>
<radialGradient id="paint43_radial_551_47611" cx="0" cy="0" r="1" gradientUnits="userSpaceOnUse" gradientTransform="translate(62.054 43.2227) scale(102.339 103.02)">
<stop offset="0.00558659" stop-color="#30A9E5"/>
<stop offset="0.6592" stop-color="#0E4777"/>
</radialGradient>
<radialGradient id="paint44_radial_551_47611" cx="0" cy="0" r="1" gradientUnits="userSpaceOnUse" gradientTransform="translate(62.054 43.2226) scale(102.339 103.02)">
<stop offset="0.00558659" stop-color="#30A9E5"/>
<stop offset="0.6592" stop-color="#0E4777"/>
</radialGradient>
<radialGradient id="paint45_radial_551_47611" cx="0" cy="0" r="1" gradientUnits="userSpaceOnUse" gradientTransform="translate(62.054 43.2226) scale(102.339 103.02)">
<stop offset="0.00558659" stop-color="#30A9E5"/>
<stop offset="0.6592" stop-color="#0E4777"/>
</radialGradient>
<radialGradient id="paint46_radial_551_47611" cx="0" cy="0" r="1" gradientUnits="userSpaceOnUse" gradientTransform="translate(62.054 43.2226) scale(102.339 103.02)">
<stop offset="0.00558659" stop-color="#30A9E5"/>
<stop offset="0.6592" stop-color="#0E4777"/>
</radialGradient>
</defs>
</svg>
