<svg width="28" height="28" viewBox="0 0 28 28" fill="none" xmlns="http://www.w3.org/2000/svg">
<g id="fi_3128219">
<g id="_x31_0.Linkedin">
<path id="Vector" d="M25.2 25.1991V16.9951C25.2 12.9631 24.332 9.88306 19.628 9.88306C17.36 9.88306 15.848 11.1151 15.232 12.2911H15.176V10.2471H10.724V25.1991H15.372V17.7791C15.372 15.8191 15.736 13.9431 18.144 13.9431C20.524 13.9431 20.552 16.1551 20.552 17.8911V25.1711H25.2V25.1991Z" fill="white"/>
<path id="Vector_2" d="M3.16425 10.2473H7.81225V25.1993H3.16425V10.2473Z" fill="white"/>
<path id="Vector_3" d="M5.48799 2.79907C4.00399 2.79907 2.79999 4.00307 2.79999 5.48707C2.79999 6.97107 4.00399 8.20307 5.48799 8.20307C6.97199 8.20307 8.17599 6.97107 8.17599 5.48707C8.17599 4.00307 6.97199 2.79907 5.48799 2.79907Z" fill="white"/>
</g>
</g>
</svg>
