<svg width="28" height="28" viewBox="0 0 28 28" fill="none" xmlns="http://www.w3.org/2000/svg">
<g id="fi_4922978">
<path id="Icon" d="M11.1265 15.5651H8.16068C7.68173 15.5651 7.53436 15.3809 7.53436 14.9388C7.53436 13.7414 7.53436 12.5072 7.53436 11.3098C7.53436 10.8309 7.71857 10.6467 8.16068 10.6467H11.1265V8.01248C11.0896 6.85195 11.3659 5.673 11.937 4.623C12.5449 3.573 13.5028 2.79932 14.608 2.41248C15.3633 2.13616 16.1002 2.02563 16.8923 2.02563H19.8212C20.2449 2.02563 20.4291 2.20985 20.4291 2.63353V6.04142C20.4291 6.46511 20.2449 6.64932 19.8212 6.64932C19.0107 6.64932 18.2002 6.64932 17.3896 6.68616C16.5791 6.723 16.1554 7.073 16.1554 7.92037C16.1186 8.823 16.1554 9.68879 16.1554 10.6098H19.6002C20.0791 10.6098 20.2633 10.7941 20.2633 11.273V14.902C20.2633 15.3809 20.1159 15.5651 19.6002 15.5651H16.1923V25.3098C16.1923 25.8256 16.008 25.9914 15.5107 25.9914H11.7712C11.3291 25.9914 11.1449 25.8072 11.1449 25.3651V15.5651H11.1265Z" fill="white"/>
</g>
</svg>
