<svg width="169" height="65" viewBox="0 0 169 65" fill="none" xmlns="http://www.w3.org/2000/svg">
<g id="Group 69">
<path id="Vector" d="M39.2235 17.5263V12.4895H0.829285V0.127441H44.8072C45.6216 0.127441 46.4483 0.341082 47.2936 0.768365C48.1357 1.19565 48.8915 1.76213 49.564 2.46132C50.2334 3.16374 50.7702 3.95681 51.1774 4.84375C51.5846 5.73068 51.7882 6.63057 51.7882 7.5434V21.3686C51.7882 22.2847 51.5846 23.1846 51.1774 24.0683C50.7702 24.9552 50.2304 25.7483 49.564 26.4474C48.8946 27.1499 48.1388 27.7164 47.2936 28.1404C46.4483 28.5677 45.6216 28.7813 44.8072 28.7813H41.2287L65.9231 64.4918H51.7882L26.2208 28.7813H13.394V46.1769H0.829285V17.5166H39.2235V17.5263Z" fill="white"/>
<path id="Vector_2" d="M57.2853 17.5263H69.85V33.8246H98.9064V12.4895H57.2853V0.127441H104.493C105.307 0.127441 106.137 0.341082 106.979 0.768365C107.822 1.19565 108.577 1.76213 109.25 2.46132C109.919 3.16374 110.456 3.95681 110.863 4.84375C111.271 5.73068 111.474 6.63057 111.474 7.5434V38.7674C111.474 39.6835 111.271 40.5834 110.863 41.4671C110.456 42.354 109.916 43.1471 109.25 43.8495C108.581 44.552 107.825 45.1184 106.979 45.5425C106.137 45.9698 105.307 46.1834 104.493 46.1834H57.2853V17.5263Z" fill="white"/>
<path id="Vector_3" d="M167.146 41.1047C166.563 42.4772 165.749 43.5454 164.703 44.3094C163.654 45.0733 162.405 45.5912 160.952 45.8664C159.496 46.1415 157.867 46.2775 156.065 46.2775C153.739 46.2775 151.453 46.0347 149.214 45.5459C146.974 45.0571 145.185 44.2025 143.846 42.9822L113.306 0.130859H128.403L149.609 29.4321C150.133 30.0439 150.701 30.5618 151.311 30.9891C151.922 31.4164 152.604 31.6301 153.363 31.6301C153.943 31.6301 154.439 31.4326 154.847 31.0344C155.254 30.6395 155.457 30.2576 155.457 29.8886V0.130859H168.022V35.8414C168.016 37.9778 167.726 39.7323 167.146 41.1047Z" fill="white"/>
</g>
</svg>
