<svg width="41" height="41" viewBox="0 0 41 41" fill="none" xmlns="http://www.w3.org/2000/svg">
<g id="fi_11559058">
<g id="Group">
<path id="Vector" d="M7.78311 11.0643C8.95178 11.0643 9.93096 10.2446 10.1806 9.15027H11.705C11.8489 9.15027 11.9899 9.20851 12.0917 9.3105L12.8652 10.0838C12.9721 10.1907 13.1119 10.244 13.2519 10.244C13.3919 10.244 13.5319 10.1907 13.6385 10.0838C13.8521 9.87023 13.8521 9.52405 13.6385 9.3105L12.8652 8.53722C12.5554 8.22714 12.1433 8.05652 11.705 8.05652H10.1806C9.93096 6.96222 8.95178 6.14246 7.78311 6.14246C6.42631 6.14246 5.32217 7.24633 5.32217 8.6034C5.32217 9.96047 6.42631 11.0643 7.78311 11.0643ZM7.78311 7.2362C8.53698 7.2362 9.1503 7.84952 9.1503 8.60339C9.1503 9.35726 8.53697 9.97058 7.78311 9.97058C7.02925 9.97058 6.41592 9.35726 6.41592 8.60339C6.41592 7.84952 7.02924 7.2362 7.78311 7.2362Z" fill="white"/>
<path id="Vector_2" d="M13.4121 30.6386L12.0914 31.9593C11.9897 32.0608 11.8489 32.119 11.7042 32.119H10.1806C9.93096 31.0247 8.95178 30.205 7.78311 30.205C6.42631 30.205 5.32217 31.3088 5.32217 32.6659C5.32217 34.023 6.42631 35.1268 7.78311 35.1268C8.95178 35.1268 9.93096 34.3071 10.1806 33.2128H11.7042C12.1368 33.2128 12.5595 33.0378 12.8647 32.7326L14.1854 31.4119C14.3989 31.1984 14.3989 30.8522 14.1854 30.6386C13.9721 30.4251 13.6254 30.4251 13.4121 30.6386ZM7.78311 34.0331C7.02924 34.0331 6.41592 33.4198 6.41592 32.6659C6.41592 31.912 7.02924 31.2987 7.78311 31.2987C8.53698 31.2987 9.1503 31.912 9.1503 32.6659C9.1503 33.4198 8.53697 34.0331 7.78311 34.0331Z" fill="white"/>
<path id="Vector_3" d="M5.59561 23.0956C6.95241 23.0956 8.05655 21.9917 8.05655 20.6346C8.05655 19.2776 6.95241 18.1737 5.59561 18.1737C4.23881 18.1737 3.13467 19.2776 3.13467 20.6346C3.13467 21.9917 4.23881 23.0956 5.59561 23.0956ZM5.59561 19.2675C6.34948 19.2675 6.9628 19.8808 6.9628 20.6346C6.9628 21.3885 6.34948 22.0018 5.59561 22.0018C4.84174 22.0018 4.22842 21.3885 4.22842 20.6346C4.22842 19.8808 4.84174 19.2675 5.59561 19.2675Z" fill="white"/>
<path id="Vector_4" d="M28.0175 10.244C28.1575 10.244 28.2972 10.1907 28.4041 10.0838L29.1777 9.31051C29.2794 9.20852 29.4202 9.15028 29.5643 9.15028H31.0887C31.3384 10.2446 32.3175 11.0643 33.4862 11.0643C34.843 11.0643 35.9472 9.96047 35.9472 8.6034C35.9472 7.24633 34.843 6.14246 33.4862 6.14246C32.3175 6.14246 31.3384 6.96223 31.0887 8.05652H29.5643C29.126 8.05652 28.7142 8.22714 28.4044 8.53695L27.6308 9.3105C27.4173 9.52405 27.4173 9.87023 27.6308 10.0838C27.7375 10.1907 27.8775 10.244 28.0175 10.244ZM33.4862 7.2362C34.2401 7.2362 34.8534 7.84952 34.8534 8.60339C34.8534 9.35726 34.2401 9.97058 33.4862 9.97058C32.7324 9.97058 32.119 9.35726 32.119 8.60339C32.119 7.84952 32.7324 7.2362 33.4862 7.2362Z" fill="white"/>
<path id="Vector_5" d="M33.4862 30.205C32.3176 30.205 31.3384 31.0247 31.0887 32.119H29.5651C29.4205 32.119 29.2797 32.0608 29.1779 31.9593L27.8572 30.6386C27.644 30.4251 27.2972 30.4251 27.084 30.6386C26.8704 30.8522 26.8704 31.1984 27.084 31.4119L28.4047 32.7326C28.7098 33.0378 29.1328 33.2128 29.5651 33.2128H31.0887C31.3384 34.3071 32.3176 35.1268 33.4862 35.1268C34.843 35.1268 35.9472 34.023 35.9472 32.6659C35.9472 31.3088 34.843 30.205 33.4862 30.205ZM33.4862 34.0331C32.7324 34.0331 32.119 33.4198 32.119 32.6659C32.119 31.912 32.7324 31.2987 33.4862 31.2987C34.2401 31.2987 34.8534 31.912 34.8534 32.6659C34.8534 33.4198 34.2401 34.0331 33.4862 34.0331Z" fill="white"/>
<path id="Vector_6" d="M33.2128 20.6346C33.2128 21.9917 34.3169 23.0956 35.6737 23.0956C37.0305 23.0956 38.1347 21.9917 38.1347 20.6346C38.1347 19.2776 37.0305 18.1737 35.6737 18.1737C34.3169 18.1737 33.2128 19.2776 33.2128 20.6346ZM37.0409 20.6346C37.0409 21.3885 36.4276 22.0018 35.6737 22.0018C34.9199 22.0018 34.3065 21.3885 34.3065 20.6346C34.3065 19.8808 34.9199 19.2675 35.6737 19.2675C36.4276 19.2675 37.0409 19.8808 37.0409 20.6346Z" fill="white"/>
<path id="Vector_7" d="M9.42374 14.7109V19.8559C9.42374 23.9022 11.5888 27.6926 15.0743 29.748L20.3569 32.8636C20.4424 32.9139 20.5387 32.9393 20.6347 32.9393C20.7306 32.9393 20.8269 32.9139 20.9125 32.8636L26.195 29.748C29.6805 27.6926 31.8456 23.9022 31.8456 19.8559V14.7109C31.8456 14.1197 31.526 13.5723 31.0111 13.2819L21.8441 8.11062C21.0845 7.68188 20.1851 7.68188 19.4258 8.11062L10.2583 13.2819C9.74339 13.5723 9.42374 14.1197 9.42374 14.7109ZM10.5175 14.7109C10.5175 14.5137 10.6241 14.3313 10.7956 14.2345L19.9628 9.06328C20.1791 8.94133 20.4116 8.8768 20.6347 8.8768C20.8578 8.8768 21.0902 8.94133 21.3065 9.06328L30.4738 14.2348C30.6452 14.3316 30.7519 14.514 30.7519 14.7108V19.8558C30.7519 23.5166 28.793 26.9464 25.6394 28.806L20.6347 31.7575L15.6299 28.806C12.4764 26.9464 10.5175 23.5166 10.5175 19.8559V14.7109Z" fill="white"/>
<path id="Vector_8" d="M17.9003 27.744H23.369C25.1784 27.744 26.6503 26.2721 26.6503 24.4628V19.8143C26.6503 18.6082 25.6689 17.6268 24.4628 17.6268H24.1894V16.5331C24.1894 14.5731 22.5947 12.9784 20.6347 12.9784C18.6747 12.9784 17.08 14.5731 17.08 16.5331V17.6268H16.8065C15.6004 17.6268 14.619 18.6082 14.619 19.8143V24.4628C14.6191 26.2721 16.091 27.744 17.9003 27.744ZM18.1737 16.5331C18.1737 15.176 19.2779 14.0721 20.6347 14.0721C21.9915 14.0721 23.0956 15.176 23.0956 16.5331V17.6268H18.1737V16.5331ZM15.7128 19.8143C15.7128 19.2111 16.2033 18.7206 16.8065 18.7206H24.4628C25.066 18.7206 25.5565 19.2111 25.5565 19.8143V24.4628C25.5565 25.6689 24.5752 26.6503 23.369 26.6503H17.9003C16.6942 26.6503 15.7128 25.6689 15.7128 24.4628V19.8143Z" fill="white"/>
<path id="Vector_9" d="M20.0878 23.5467V25.0096C20.0878 25.3115 20.3328 25.5565 20.6347 25.5565C20.9366 25.5565 21.1816 25.3115 21.1816 25.0096V23.5467C21.8178 23.3209 22.2753 22.7147 22.2753 22.0018C22.2753 21.097 21.5395 20.3612 20.6347 20.3612C19.7299 20.3612 18.9941 21.097 18.9941 22.0018C18.9941 22.7144 19.4515 23.3209 20.0878 23.5467ZM20.6347 21.4549C20.9363 21.4549 21.1816 21.7002 21.1816 22.0018C21.1816 22.3034 20.9363 22.5487 20.6347 22.5487C20.3331 22.5487 20.0878 22.3034 20.0878 22.0018C20.0878 21.7002 20.3331 21.4549 20.6347 21.4549Z" fill="white"/>
</g>
</g>
</svg>
