<svg width="30" height="30" viewBox="0 0 30 30" fill="none" xmlns="http://www.w3.org/2000/svg">
<g id="fi_11559058">
<g id="Group">
<path id="Vector" d="M5.36133 7.82226C6.23783 7.82226 6.97222 7.20743 7.15946 6.38672H8.30276C8.41064 6.38672 8.51645 6.4304 8.59274 6.50689L9.17291 7.08685C9.2531 7.16703 9.35789 7.20702 9.46289 7.20702C9.56789 7.20702 9.67289 7.16703 9.75287 7.08685C9.91304 6.92669 9.91304 6.66705 9.75287 6.50689L9.17291 5.92693C8.94056 5.69437 8.6315 5.5664 8.30277 5.5664H7.15946C6.97222 4.74568 6.23783 4.13086 5.36133 4.13086C4.34373 4.13086 3.51562 4.95876 3.51562 5.97656C3.51562 6.99437 4.34373 7.82226 5.36133 7.82226ZM5.36133 4.95116C5.92673 4.95116 6.38672 5.41115 6.38672 5.97656C6.38672 6.54196 5.92673 7.00195 5.36133 7.00195C4.79594 7.00195 4.33594 6.54196 4.33594 5.97656C4.33594 5.41115 4.79593 4.95116 5.36133 4.95116Z" fill="#E8E8E8"/>
<path id="Vector_2" d="M9.58307 22.503L8.59254 23.4935C8.51625 23.5696 8.41064 23.6133 8.30215 23.6133H7.15946C6.97222 22.7926 6.23783 22.1777 5.36133 22.1777C4.34373 22.1777 3.51562 23.0056 3.51562 24.0234C3.51562 25.0412 4.34373 25.8691 5.36133 25.8691C6.23783 25.8691 6.97222 25.2543 7.15946 24.4336H8.30215C8.62658 24.4336 8.94363 24.3024 9.1725 24.0735L10.163 23.083C10.3232 22.9228 10.3232 22.6632 10.163 22.503C10.0031 22.3428 9.74303 22.3428 9.58307 22.503ZM5.36133 25.0488C4.79593 25.0488 4.33594 24.5888 4.33594 24.0234C4.33594 23.458 4.79593 22.998 5.36133 22.998C5.92673 22.998 6.38672 23.458 6.38672 24.0234C6.38672 24.5888 5.92673 25.0488 5.36133 25.0488Z" fill="#E8E8E8"/>
<path id="Vector_3" d="M3.7207 16.8457C4.7383 16.8457 5.56641 16.0178 5.56641 15C5.56641 13.9822 4.7383 13.1543 3.7207 13.1543C2.7031 13.1543 1.875 13.9822 1.875 15C1.875 16.0178 2.7031 16.8457 3.7207 16.8457ZM3.7207 13.9746C4.28611 13.9746 4.7461 14.4346 4.7461 15C4.7461 15.5654 4.28611 16.0254 3.7207 16.0254C3.1553 16.0254 2.69531 15.5654 2.69531 15C2.69531 14.4346 3.1553 13.9746 3.7207 13.9746Z" fill="#E8E8E8"/>
<path id="Vector_4" d="M20.5371 7.20703C20.6421 7.20703 20.7469 7.16704 20.8271 7.08686L21.4073 6.5069C21.4835 6.4304 21.5892 6.38672 21.6972 6.38672H22.8405C23.0278 7.20745 23.7622 7.82227 24.6387 7.82227C25.6563 7.82227 26.4844 6.99437 26.4844 5.97656C26.4844 4.95876 25.6563 4.13086 24.6387 4.13086C23.7622 4.13086 23.0278 4.74569 22.8405 5.5664H21.6972C21.3685 5.5664 21.0596 5.69437 20.8273 5.92673L20.2471 6.50689C20.087 6.66705 20.087 6.92669 20.2471 7.08685C20.3271 7.16703 20.4321 7.20703 20.5371 7.20703ZM24.6387 4.95116C25.2041 4.95116 25.6641 5.41115 25.6641 5.97656C25.6641 6.54196 25.2041 7.00195 24.6387 7.00195C24.0733 7.00195 23.6133 6.54196 23.6133 5.97656C23.6133 5.41115 24.0733 4.95116 24.6387 4.95116Z" fill="#E8E8E8"/>
<path id="Vector_5" d="M24.6387 22.1777C23.7622 22.1777 23.0278 22.7926 22.8406 23.6133H21.6979C21.5894 23.6133 21.4838 23.5696 21.4075 23.4935L20.4169 22.503C20.257 22.3428 19.9969 22.3428 19.837 22.503C19.6768 22.6631 19.6768 22.9228 19.837 23.0829L20.8275 24.0735C21.0564 24.3023 21.3736 24.4336 21.6979 24.4336H22.8406C23.0278 25.2543 23.7622 25.8691 24.6387 25.8691C25.6563 25.8691 26.4844 25.0412 26.4844 24.0234C26.4844 23.0056 25.6563 22.1777 24.6387 22.1777ZM24.6387 25.0488C24.0733 25.0488 23.6133 24.5888 23.6133 24.0234C23.6133 23.458 24.0733 22.998 24.6387 22.998C25.2041 22.998 25.6641 23.458 25.6641 24.0234C25.6641 24.5888 25.2041 25.0488 24.6387 25.0488Z" fill="#E8E8E8"/>
<path id="Vector_6" d="M24.4336 15C24.4336 16.0178 25.2617 16.8457 26.2793 16.8457C27.2969 16.8457 28.125 16.0178 28.125 15C28.125 13.9822 27.2969 13.1543 26.2793 13.1543C25.2617 13.1543 24.4336 13.9822 24.4336 15ZM27.3047 15C27.3047 15.5654 26.8447 16.0254 26.2793 16.0254C25.7139 16.0254 25.2539 15.5654 25.2539 15C25.2539 14.4346 25.7139 13.9746 26.2793 13.9746C26.8447 13.9746 27.3047 14.4346 27.3047 15Z" fill="#E8E8E8"/>
<path id="Vector_7" d="M6.5918 10.5572V14.4159C6.5918 17.4507 8.21561 20.2935 10.8297 21.8351L14.7916 24.1717C14.8558 24.2094 14.928 24.2285 15 24.2285C15.072 24.2285 15.1442 24.2094 15.2084 24.1717L19.1703 21.8351C21.7844 20.2935 23.4082 17.4507 23.4082 14.4159V10.5572C23.4082 10.1138 23.1685 9.70325 22.7823 9.48545L15.9071 5.60702C15.3374 5.28545 14.6629 5.28545 14.0934 5.60702L7.2177 9.48545C6.83153 9.70325 6.5918 10.1138 6.5918 10.5572ZM7.41211 10.5572C7.41211 10.4093 7.49209 10.2725 7.62068 10.1999L14.4961 6.3215C14.6583 6.23004 14.8327 6.18164 15 6.18164C15.1674 6.18164 15.3417 6.23004 15.5039 6.3215L22.3793 10.2001C22.5079 10.2727 22.5879 10.4095 22.5879 10.5572V14.4159C22.5879 17.1615 21.1187 19.7338 18.7536 21.1285L15 23.3422L11.2465 21.1286C8.88129 19.7338 7.41211 17.1615 7.41211 14.4159V10.5572Z" fill="#E8E8E8"/>
<path id="Vector_8" d="M12.9492 20.332H17.0508C18.4078 20.332 19.5117 19.2281 19.5117 17.8711V14.3848C19.5117 13.4802 18.7757 12.7441 17.8711 12.7441H17.666V11.9238C17.666 10.4538 16.47 9.25781 15 9.25781C13.53 9.25781 12.334 10.4538 12.334 11.9238V12.7441H12.1289C11.2243 12.7441 10.4883 13.4802 10.4883 14.3848V17.8711C10.4883 19.2281 11.5922 20.332 12.9492 20.332ZM13.1543 11.9238C13.1543 10.906 13.9824 10.0781 15 10.0781C16.0176 10.0781 16.8457 10.906 16.8457 11.9238V12.7441H13.1543V11.9238ZM11.3086 14.3848C11.3086 13.9324 11.6765 13.5645 12.1289 13.5645H17.8711C18.3235 13.5645 18.6914 13.9324 18.6914 14.3848V17.8711C18.6914 18.7757 17.9554 19.5117 17.0508 19.5117H12.9492C12.0446 19.5117 11.3086 18.7757 11.3086 17.8711V14.3848Z" fill="#E8E8E8"/>
<path id="Vector_9" d="M14.5898 17.1841V18.2812C14.5898 18.5077 14.7736 18.6914 15 18.6914C15.2264 18.6914 15.4101 18.5077 15.4101 18.2812V17.1841C15.8874 17.0147 16.2305 16.56 16.2305 16.0254C16.2305 15.3468 15.6786 14.7949 15 14.7949C14.3214 14.7949 13.7695 15.3468 13.7695 16.0254C13.7695 16.5598 14.1126 17.0147 14.5898 17.1841ZM15 15.6152C15.2262 15.6152 15.4101 15.7992 15.4101 16.0254C15.4101 16.2516 15.2262 16.4355 15 16.4355C14.7738 16.4355 14.5898 16.2516 14.5898 16.0254C14.5898 15.7992 14.7738 15.6152 15 15.6152Z" fill="#E8E8E8"/>
</g>
</g>
</svg>
