<svg width="39" height="39" viewBox="0 0 39 39" fill="none" xmlns="http://www.w3.org/2000/svg">
<g id="fi_11559058">
<g id="Group">
<path id="Vector" d="M7.60938 10.2617C8.71961 10.2617 9.64984 9.48293 9.887 8.44336H11.3352C11.4718 8.44336 11.6059 8.49869 11.7025 8.59558L12.4374 9.33019C12.5389 9.43176 12.6717 9.48241 12.8047 9.48241C12.9377 9.48241 13.0707 9.43176 13.172 9.33019C13.3749 9.12732 13.3749 8.79845 13.172 8.59558L12.4374 7.86096C12.1431 7.56638 11.7516 7.40429 11.3352 7.40429H9.887C9.64984 6.36471 8.71961 5.58594 7.60938 5.58594C6.32042 5.58594 5.27148 6.63461 5.27148 7.92383C5.27148 9.21305 6.32042 10.2617 7.60938 10.2617ZM7.60938 6.62499C8.32555 6.62499 8.90821 7.20764 8.90821 7.92382C8.90821 8.64 8.32554 9.22265 7.60938 9.22265C6.89321 9.22265 6.31055 8.64 6.31055 7.92382C6.31055 7.20764 6.8932 6.62499 7.60938 6.62499Z" fill="#E8E8E8"/>
<path id="Vector_2" d="M12.9569 28.8573L11.7022 30.112C11.6056 30.2083 11.4718 30.2637 11.3344 30.2637H9.887C9.64984 29.2241 8.71961 28.4453 7.60938 28.4453C6.32042 28.4453 5.27148 29.494 5.27148 30.7832C5.27148 32.0724 6.32042 33.1211 7.60938 33.1211C8.71961 33.1211 9.64984 32.3423 9.887 31.3027H11.3344C11.7454 31.3027 12.147 31.1365 12.4369 30.8466L13.6915 29.5919C13.8944 29.3891 13.8944 29.0602 13.6915 28.8573C13.4889 28.6544 13.1595 28.6544 12.9569 28.8573ZM7.60938 32.082C6.8932 32.082 6.31055 31.4994 6.31055 30.7832C6.31055 30.067 6.8932 29.4844 7.60938 29.4844C8.32555 29.4844 8.90821 30.067 8.90821 30.7832C8.90821 31.4994 8.32554 32.082 7.60938 32.082Z" fill="#E8E8E8"/>
<path id="Vector_3" d="M5.53125 21.6914C6.82021 21.6914 7.86915 20.6427 7.86915 19.3535C7.86915 18.0643 6.82021 17.0156 5.53125 17.0156C4.24229 17.0156 3.19336 18.0643 3.19336 19.3535C3.19336 20.6427 4.24229 21.6914 5.53125 21.6914ZM5.53125 18.0547C6.24743 18.0547 6.83008 18.6373 6.83008 19.3535C6.83008 20.0697 6.24743 20.6523 5.53125 20.6523C4.81508 20.6523 4.23242 20.0697 4.23242 19.3535C4.23242 18.6373 4.81508 18.0547 5.53125 18.0547Z" fill="#E8E8E8"/>
<path id="Vector_4" d="M26.832 9.48242C26.965 9.48242 27.0977 9.43177 27.1993 9.3302L27.9341 8.59559C28.0308 8.49869 28.1646 8.44337 28.3015 8.44337H29.7496C29.9868 9.48295 30.917 10.2617 32.0273 10.2617C33.3162 10.2617 34.3652 9.21305 34.3652 7.92383C34.3652 6.63461 33.3162 5.58594 32.0273 5.58594C30.917 5.58594 29.9868 6.36472 29.7496 7.40429H28.3015C27.885 7.40429 27.4938 7.56638 27.1995 7.8607L26.4647 8.59558C26.2618 8.79845 26.2618 9.12732 26.4647 9.33019C26.566 9.43176 26.699 9.48242 26.832 9.48242ZM32.0273 6.62499C32.7435 6.62499 33.3261 7.20764 33.3261 7.92382C33.3261 8.64 32.7435 9.22265 32.0273 9.22265C31.3111 9.22265 30.7284 8.64 30.7284 7.92382C30.7284 7.20764 31.3111 6.62499 32.0273 6.62499Z" fill="#E8E8E8"/>
<path id="Vector_5" d="M32.0273 28.4453C30.917 28.4453 29.9868 29.2241 29.7497 30.2637H28.3022C28.1648 30.2637 28.031 30.2083 27.9344 30.112L26.6797 28.8573C26.4771 28.6544 26.1477 28.6544 25.9451 28.8573C25.7423 29.0602 25.7423 29.389 25.9451 29.5919L27.1998 30.8466C27.4897 31.1365 27.8915 31.3027 28.3022 31.3027H29.7496C29.9868 32.3423 30.917 33.1211 32.0273 33.1211C33.3162 33.1211 34.3652 32.0724 34.3652 30.7832C34.3652 29.494 33.3162 28.4453 32.0273 28.4453ZM32.0273 32.082C31.3111 32.082 30.7284 31.4994 30.7284 30.7832C30.7284 30.067 31.3111 29.4844 32.0273 29.4844C32.7435 29.4844 33.3261 30.067 33.3261 30.7832C33.3261 31.4994 32.7435 32.082 32.0273 32.082Z" fill="#E8E8E8"/>
<path id="Vector_6" d="M31.7676 19.3535C31.7676 20.6427 32.8165 21.6914 34.1055 21.6914C35.3944 21.6914 36.4434 20.6427 36.4434 19.3535C36.4434 18.0643 35.3944 17.0156 34.1055 17.0156C32.8165 17.0156 31.7676 18.0643 31.7676 19.3535ZM35.4043 19.3535C35.4043 20.0697 34.8216 20.6523 34.1055 20.6523C33.3893 20.6523 32.8066 20.0697 32.8066 19.3535C32.8066 18.6373 33.3893 18.0547 34.1055 18.0547C34.8216 18.0547 35.4043 18.6373 35.4043 19.3535Z" fill="#E8E8E8"/>
<path id="Vector_7" d="M9.16797 13.7261V18.6138C9.16797 22.4579 11.2248 26.0587 14.536 28.0114L19.5544 30.9712C19.6357 31.019 19.7272 31.0431 19.8184 31.0431C19.9095 31.0431 20.001 31.019 20.0823 30.9712L25.1007 28.0114C28.4119 26.0587 30.4688 22.4579 30.4688 18.6138V13.7261C30.4688 13.1645 30.1651 12.6444 29.676 12.3686L20.9673 7.45587C20.2457 7.04856 19.3913 7.04856 18.6699 7.45587L9.96078 12.3686C9.47164 12.6444 9.16797 13.1645 9.16797 13.7261ZM10.207 13.7261C10.207 13.5388 10.3083 13.3655 10.4712 13.2736L19.1801 8.36089C19.3856 8.24504 19.6064 8.18374 19.8184 8.18374C20.0303 8.18374 20.2511 8.24504 20.4566 8.36089L29.1655 13.2738C29.3284 13.3658 29.4297 13.5391 29.4297 13.7261V18.6138C29.4297 22.0916 27.5687 25.3498 24.5729 27.1165L19.8184 29.9204L15.0639 27.1165C12.068 25.3498 10.207 22.0916 10.207 18.6139V13.7261Z" fill="#E8E8E8"/>
<path id="Vector_8" d="M17.2207 26.1074H22.416C24.1349 26.1074 25.5332 24.7091 25.5332 22.9902V18.5742C25.5332 17.4284 24.6009 16.4961 23.4551 16.4961H23.1953V15.457C23.1953 13.595 21.6804 12.0801 19.8184 12.0801C17.9564 12.0801 16.4414 13.595 16.4414 15.457V16.4961H16.1816C15.0358 16.4961 14.1035 17.4284 14.1035 18.5742V22.9902C14.1035 24.7091 15.5018 26.1074 17.2207 26.1074ZM17.4805 15.457C17.4805 14.1678 18.5294 13.1191 19.8184 13.1191C21.1073 13.1191 22.1563 14.1678 22.1563 15.457V16.4961H17.4805V15.457ZM15.1426 18.5742C15.1426 18.0012 15.6086 17.5352 16.1816 17.5352H23.4551C24.0281 17.5352 24.4942 18.0012 24.4942 18.5742V22.9902C24.4942 24.1361 23.5618 25.0684 22.416 25.0684H17.2207C16.0749 25.0684 15.1426 24.1361 15.1426 22.9902V18.5742Z" fill="#E8E8E8"/>
<path id="Vector_9" d="M19.2988 22.12V23.5098C19.2988 23.7965 19.5316 24.0293 19.8183 24.0293C20.1051 24.0293 20.3379 23.7965 20.3379 23.5098V22.12C20.9424 21.9054 21.3769 21.3295 21.3769 20.6523C21.3769 19.7928 20.6779 19.0938 19.8184 19.0938C18.9588 19.0938 18.2598 19.7928 18.2598 20.6523C18.2598 21.3293 18.6943 21.9054 19.2988 22.12ZM19.8183 20.1328C20.1049 20.1328 20.3379 20.3658 20.3379 20.6523C20.3379 20.9389 20.1049 21.1719 19.8183 21.1719C19.5318 21.1719 19.2988 20.9389 19.2988 20.6523C19.2988 20.3658 19.5318 20.1328 19.8183 20.1328Z" fill="#E8E8E8"/>
</g>
</g>
</svg>
