<svg width="53" height="60" viewBox="0 0 53 60" fill="none" xmlns="http://www.w3.org/2000/svg">
<g id="XMLID_3_">
<path id="XMLID_7_" d="M20.8176 2.46777C18.6545 3.18666 16.6008 4.12702 14.6865 5.25925L19.0165 7.67884C20.7529 6.72071 22.6075 5.93668 24.5554 5.35162L20.8176 2.46777Z" fill="white"/>
<path id="XMLID_29_" d="M7.62142 10.9873C6.11385 12.6359 4.79534 14.4456 3.69824 16.3855L8.73096 17.5497C9.75218 15.8395 10.9662 14.249 12.3469 12.8029L7.62142 10.9873Z" fill="white"/>
<path id="XMLID_30_" d="M3.16927 17.3613C2.16049 19.3155 1.37063 21.3916 0.832031 23.5601L5.97794 24.0232C6.49788 22.0951 7.24047 20.2523 8.17711 18.5196L3.16927 17.3613Z" fill="white"/>
<path id="XMLID_31_" d="M1.59082 39.7603C2.32719 41.8589 3.30239 43.8545 4.48905 45.7139L9.02297 44.2063C7.97439 42.5328 7.11363 40.7409 6.4693 38.8555L1.59082 39.7603Z" fill="white"/>
<path id="XMLID_32_" d="M0.0620117 32.2879C0.210033 34.5132 0.61678 36.6711 1.25364 38.7354L6.14083 37.8282C5.59477 35.9759 5.25395 34.0419 5.14324 32.0498L0.0620117 32.2879Z" fill="white"/>
<path id="XMLID_33_" d="M9.63268 45.1338L5.10498 46.6403C6.36627 48.4629 7.83529 50.1459 9.47844 51.6571L13.536 49.6437C12.0682 48.2841 10.7584 46.7717 9.63268 45.1338Z" fill="white"/>
<path id="XMLID_34_" d="M10.3491 52.4282C12.0308 53.8612 13.878 55.1237 15.8595 56.1837L19.351 53.7807C17.5723 52.8309 15.9142 51.701 14.4042 50.416L10.3491 52.4282Z" fill="white"/>
<path id="XMLID_35_" d="M5.72182 25.074L0.593328 24.6133C0.203995 26.4822 0 28.4138 0 30.3916C0 30.6688 0.00497549 30.9459 0.0124387 31.2219L5.10984 30.9826C5.10859 30.8689 5.10486 30.7552 5.10486 30.6404C5.10486 28.73 5.31881 26.8683 5.72182 25.074Z" fill="white"/>
<path id="XMLID_36_" d="M51.5273 8.15668C49.863 6.76627 48.0419 5.54286 46.0928 4.51367L47.6663 8.11997C49.287 9.08164 50.7971 10.1961 52.1728 11.4444L51.5273 8.15668Z" fill="white"/>
<path id="XMLID_37_" d="M17.9293 8.30864L13.6342 5.90918C11.7373 7.13615 9.9884 8.55735 8.42236 10.1444L13.1777 11.9718C14.6131 10.592 16.2065 9.36269 17.9293 8.30864Z" fill="white"/>
<path id="XMLID_38_" d="M44.5455 3.75034C42.5802 2.84669 40.4992 2.13372 38.3286 1.63867L40.7119 5.16562C42.5864 5.68198 44.3788 6.38074 46.068 7.24057L44.5455 3.75034Z" fill="white"/>
<path id="XMLID_39_" d="M28.71 0.905273C26.425 1.06753 24.2097 1.46546 22.0889 2.07303L25.869 4.98885C27.7696 4.51394 29.7499 4.22614 31.7861 4.14679L28.71 0.905273Z" fill="white"/>
<path id="XMLID_44_" d="M36.7837 1.32442C34.9266 0.995178 33.0122 0.822266 31.0544 0.822266C30.7534 0.822266 30.4523 0.827003 30.1538 0.835293L33.2772 4.12655C35.2811 4.14787 37.2339 4.37053 39.1134 4.77438L36.7837 1.32442Z" fill="white"/>
<path id="XMLID_46_" d="M40.2656 58.6384C42.2546 58.0509 44.1577 57.2788 45.9526 56.3419L46.9303 53.5801C45.3381 54.4612 43.6465 55.1979 41.874 55.7675L40.2656 58.6384Z" fill="white"/>
<path id="XMLID_48_" d="M32.4541 59.9302C34.6247 59.839 36.7368 59.5358 38.7693 59.0407L40.3564 56.209C38.5366 56.6851 36.6422 56.9906 34.6931 57.1043L32.4541 59.9302Z" fill="white"/>
<path id="XMLID_49_" d="M27.3776 56.623L24.5005 59.2985C26.6051 59.7284 28.7881 59.9569 31.0259 59.9581L33.2499 57.1513C33.1516 57.1524 33.0546 57.1548 32.9564 57.1548C31.0445 57.156 29.1799 56.9724 27.3776 56.623Z" fill="white"/>
<path id="XMLID_51_" d="M16.959 56.7452C18.9293 57.7022 21.0215 58.4649 23.2082 59.0073L26.0766 56.3402C24.11 55.8641 22.228 55.189 20.4543 54.3398L16.959 56.7452Z" fill="white"/>
<g id="XMLID_1_">
<path id="XMLID_53_" d="M30.4789 9.91974L24.5556 5.35059C22.6077 5.93683 20.7531 6.72086 19.0166 7.6778L26.0793 11.624C27.4675 10.9205 28.9402 10.3461 30.4789 9.91974Z" fill="white"/>
<path id="XMLID_54_" d="M20.2293 15.8311L12.3469 12.8027C10.9662 14.2476 9.75218 15.8394 8.73096 17.5495L17.2192 19.512C18.0861 18.1855 19.0962 16.9515 20.2293 15.8311Z" fill="white"/>
<path id="XMLID_55_" d="M16.6258 20.4735L8.17866 18.5205C7.24203 20.2532 6.49943 22.096 5.97949 24.0241L14.704 24.8081C15.1842 23.2874 15.831 21.8366 16.6258 20.4735Z" fill="white"/>
<path id="XMLID_56_" d="M14.6166 37.3408L6.46924 38.8532C7.11357 40.7387 7.97433 42.5306 9.02291 44.204L16.4924 41.7193C15.7112 40.3419 15.0793 38.8757 14.6166 37.3408Z" fill="white"/>
<path id="XMLID_57_" d="M13.721 31.6455L5.14453 32.0482C5.25399 34.0402 5.59481 35.9742 6.14212 37.8265L14.3343 36.3059C13.9636 34.8053 13.7534 33.2467 13.721 31.6455Z" fill="white"/>
<path id="XMLID_58_" d="M17.0585 42.6631L9.63379 45.1336C10.7595 46.7715 12.0693 48.2839 13.5371 49.6435L20.05 46.4115C18.9193 45.2698 17.9143 44.0132 17.0585 42.6631Z" fill="white"/>
<path id="XMLID_59_" d="M20.8747 47.2061L14.4053 50.4156C15.9153 51.7006 17.5734 52.8304 19.3522 53.7803L24.7456 50.0686C23.35 49.2443 22.0526 48.2838 20.8747 47.2061Z" fill="white"/>
<path id="XMLID_60_" d="M14.4017 25.8537L5.72194 25.0732C5.31893 26.8687 5.10498 28.7293 5.10498 30.6384C5.10498 30.7533 5.10747 30.867 5.10996 30.9807L13.7263 30.5757C13.7735 28.9519 14.0062 27.372 14.4017 25.8537Z" fill="white"/>
<path id="XMLID_61_" d="M52.8637 14.9701L52.1721 11.4455C50.7964 10.1972 49.2863 9.08277 47.6655 8.12109L49.5998 12.5541C50.764 13.267 51.8549 14.0771 52.8637 14.9701Z" fill="white"/>
<path id="XMLID_62_" d="M24.9523 12.2325L17.9293 8.30762C16.2066 9.36049 14.6132 10.591 13.1777 11.9696L21.1 15.0133C22.2767 13.9664 23.5666 13.0319 24.9523 12.2325Z" fill="white"/>
<path id="XMLID_63_" d="M47.9936 11.6538L46.068 7.24097C44.3789 6.38114 42.5864 5.68238 40.7119 5.16602L44.0181 10.0597C45.4038 10.4742 46.7335 11.0107 47.9936 11.6538Z" fill="white"/>
<path id="XMLID_64_" d="M36.4321 9.04252L31.7863 4.14648C29.75 4.22702 27.7698 4.51481 25.8691 4.98855L31.8285 9.58613C33.3137 9.26517 34.8537 9.07923 36.4321 9.04252Z" fill="white"/>
<path id="XMLID_69_" d="M42.3974 9.63333L39.1136 4.77283C37.2329 4.36897 35.28 4.14632 33.2773 4.125L37.9556 9.05538C39.4781 9.11341 40.9632 9.31001 42.3974 9.63333Z" fill="white"/>
<path id="XMLID_71_" d="M43.7358 52.4483L41.875 55.7668C43.6475 55.1971 45.3392 54.4605 46.9314 53.5793L47.9115 50.8115C46.5893 51.4795 45.1924 52.0302 43.7358 52.4483Z" fill="white"/>
<path id="XMLID_73_" d="M37.6433 53.3806L34.6929 57.1042C36.642 56.9905 38.5352 56.6849 40.3562 56.2088L42.2531 52.8252C40.7667 53.1497 39.2243 53.3404 37.6433 53.3806Z" fill="white"/>
<path id="XMLID_74_" d="M31.5238 52.7695L27.3779 56.6245C29.1803 56.9739 31.0461 57.1575 32.9567 57.1575C33.055 57.1575 33.1532 57.1551 33.2503 57.1539L36.243 53.3771C34.6223 53.3262 33.0438 53.1189 31.5238 52.7695Z" fill="white"/>
<path id="XMLID_76_" d="M25.8033 50.6572L20.4546 54.3381C22.2284 55.1885 24.1103 55.8636 26.0769 56.3385L30.2663 52.4432C28.704 51.9943 27.2088 51.3939 25.8033 50.6572Z" fill="white"/>
</g>
</g>
</svg>
